<?xml version="1.0" standalone="no"?>
<!DOCTYPE svg PUBLIC "-//W3C//DTD SVG 20010904//EN"
 "http://www.w3.org/TR/2001/REC-SVG-20010904/DTD/svg10.dtd">
<svg version="1.0" xmlns="http://www.w3.org/2000/svg"
 width="600.000000pt" height="600.000000pt" viewBox="0 0 600.000000 600.000000"
 preserveAspectRatio="xMidYMid meet">

<g transform="translate(0.000000,600.000000) scale(0.100000,-0.100000)"
fill="#000000" stroke="none">
<path d="M4025 5554 c3 -55 10 -205 15 -333 6 -129 13 -237 15 -240 3 -2 5 12
5 32 0 26 8 45 30 68 21 24 26 35 17 41 -7 5 -8 8 -1 8 20 0 76 61 70 76 -4 9
2 14 15 14 15 0 19 5 15 15 -3 8 0 15 7 15 7 0 22 18 35 41 13 22 30 43 38 46
8 3 14 14 14 24 0 13 7 19 22 19 17 0 19 3 10 12 -27 27 -9 30 21 2 19 -16 4
-1 -32 34 -66 63 -189 158 -261 201 l-40 23 5 -98z"/>
<path d="M1660 5509 c-35 -31 -35 -31 -3 -9 18 11 35 25 38 30 10 16 2 11 -35
-21z"/>
<path d="M1594 5459 c-15 -17 -13 -18 37 -33 64 -19 87 -20 39 -1 -19 7 -30
14 -25 14 6 1 11 9 12 20 2 25 -40 25 -63 0z"/>
<path d="M1403 5277 c-476 -502 -666 -1269 -483 -1957 31 -116 92 -282 100
-273 4 4 89 131 190 281 118 176 188 272 199 271 9 0 161 -12 339 -27 177 -15
322 -26 322 -25 0 2 -10 41 -22 86 -33 119 -33 336 0 456 38 140 102 262 200
381 l29 35 -76 322 c-42 178 -81 327 -86 332 -6 5 -138 45 -295 90 -157 44
-299 85 -317 90 -31 9 -35 7 -100 -62z m-208 -1057 l12 -35 7 33 c7 30 30 52
41 40 3 -3 -3 -29 -13 -59 -25 -72 -50 -74 -71 -6 -10 33 -19 46 -29 42 -7 -3
-20 -5 -28 -5 -8 0 -14 -4 -14 -10 0 -5 9 -10 20 -10 11 0 20 -4 20 -10 0 -5
-9 -10 -20 -10 -11 0 -20 -7 -20 -15 0 -9 9 -15 25 -15 14 0 25 -4 25 -10 0
-5 -18 -10 -40 -10 l-40 0 0 60 0 61 57 -3 c55 -3 57 -4 68 -38z m163 8 c11
-23 11 -33 0 -55 -26 -55 -98 -34 -98 27 0 61 72 82 98 28z m52 -17 c0 -43 2
-48 22 -47 11 0 23 -5 25 -11 3 -9 -8 -13 -36 -13 l-41 0 0 60 c0 47 3 60 15
60 11 0 15 -12 15 -49z m80 12 c0 -21 4 -44 9 -52 15 -24 31 -2 31 43 l0 43
64 2 c64 1 99 -15 57 -26 -17 -4 -21 -13 -21 -49 0 -32 -4 -44 -15 -44 -11 0
-15 12 -15 44 0 35 -4 45 -20 49 -17 4 -20 0 -20 -32 0 -44 -14 -61 -52 -61
-33 0 -48 24 -48 79 0 30 4 41 15 41 11 0 15 -11 15 -37z m220 -23 c0 -47 -3
-60 -15 -60 -12 0 -15 13 -15 60 0 47 3 60 15 60 12 0 15 -13 15 -60z m108 28
c11 -23 11 -33 0 -55 -26 -55 -98 -34 -98 27 0 61 72 82 98 28z m63 6 l14 -26
5 23 c3 13 14 25 23 27 15 3 17 -5 17 -57 0 -52 -3 -61 -18 -61 -11 0 -25 14
-35 33 l-16 32 0 -32 c-1 -22 -6 -33 -16 -33 -12 0 -15 13 -15 60 0 67 16 80
41 34z"/>
<path d="M1302 4228 c-16 -16 -15 -43 1 -57 18 -14 27 -4 27 30 0 32 -12 43
-28 27z"/>
<path d="M1760 4226 c-15 -19 -5 -69 13 -63 15 4 22 56 9 69 -5 5 -14 3 -22
-6z"/>
<path d="M3935 4910 c-27 -16 -50 -34 -50 -39 0 -5 -4 -13 -9 -18 -5 -5 -6 -2
-1 6 5 9 3 12 -6 9 -8 -3 -13 -10 -12 -16 2 -7 -4 -9 -14 -5 -12 5 -14 3 -8
-7 5 -8 4 -11 -3 -6 -6 3 -90 -42 -188 -100 l-177 -107 29 -24 c16 -14 58 -50
94 -81 36 -31 54 -43 40 -28 -16 18 -20 26 -10 24 8 -2 20 -9 26 -17 9 -11 12
-12 19 -1 5 9 4 11 -3 6 -8 -5 -12 0 -12 13 0 14 6 21 20 21 13 0 20 7 20 19
0 10 7 21 15 25 8 3 15 11 15 17 0 7 14 25 30 41 17 15 30 31 30 34 0 3 13 23
28 43 16 20 32 44 35 53 4 12 13 16 24 12 15 -5 16 -4 3 5 -13 9 -12 13 8 26
12 9 22 22 22 28 0 7 14 18 31 26 19 8 28 18 25 27 -6 15 27 37 39 26 5 -4 5
-1 1 6 -4 6 -8 12 -9 11 -1 0 -24 -13 -52 -29z m7 -22 c-6 -6 -20 -13 -29 -14
-16 -2 -16 -1 1 12 24 17 45 19 28 2z"/>
<path d="M3665 4440 c10 -11 20 -20 23 -20 3 0 -3 9 -13 20 -10 11 -20 20 -23
20 -3 0 3 -9 13 -20z"/>
<path d="M2469 4148 c-12 -23 -5 -32 47 -64 14 -9 16 -15 8 -24 -9 -9 -16 -9
-32 1 -27 17 -43 2 -18 -17 39 -28 92 -8 84 32 -2 10 -16 25 -32 33 -32 18
-38 34 -13 39 9 2 17 -1 17 -7 0 -6 7 -11 15 -11 18 0 19 12 3 28 -20 20 -66
14 -79 -10z"/>
<path d="M2596 4148 c-22 -31 -20 -74 4 -98 57 -57 132 29 84 98 -10 14 -26
22 -44 22 -18 0 -34 -8 -44 -22z m64 -17 c14 -26 13 -44 -4 -66 -12 -16 -16
-17 -30 -6 -19 16 -21 62 -4 79 17 17 26 15 38 -7z"/>
<path d="M2720 4100 c0 -56 3 -70 15 -70 10 0 15 10 15 30 0 25 4 30 25 30 14
0 25 5 25 10 0 6 -11 10 -25 10 -18 0 -25 5 -25 20 0 16 7 20 30 20 17 0 30 5
30 10 0 6 -20 10 -45 10 l-45 0 0 -70z"/>
<path d="M2820 4161 c0 -5 9 -11 20 -14 17 -4 20 -14 20 -61 0 -43 3 -56 15
-56 12 0 15 13 15 60 0 53 2 60 20 60 11 0 20 5 20 10 0 6 -25 10 -55 10 -30
0 -55 -4 -55 -9z"/>
<path d="M2945 4158 c2 -7 9 -39 15 -70 13 -65 36 -79 47 -28 8 44 20 45 27 4
11 -57 38 -41 53 31 16 76 16 75 -1 75 -9 0 -17 -16 -22 -42 l-7 -43 -11 37
c-6 20 -15 40 -19 44 -11 11 -27 -15 -27 -43 0 -13 -4 -23 -10 -23 -5 0 -10 9
-10 19 0 30 -11 51 -26 51 -7 0 -12 -6 -9 -12z"/>
<path d="M3132 4112 c-12 -33 -22 -64 -22 -71 0 -16 20 -14 26 4 4 8 17 15 30
15 14 0 27 -7 30 -15 4 -8 13 -15 21 -15 16 0 14 11 -17 90 -25 65 -43 62 -68
-8z m48 -18 c0 -8 -7 -14 -15 -14 -17 0 -18 2 -9 24 7 18 24 12 24 -10z"/>
<path d="M3242 4103 c2 -42 8 -68 16 -71 7 -2 12 6 12 22 0 33 23 34 38 1 6
-14 18 -25 27 -25 18 0 18 2 3 35 -9 19 -9 28 0 37 30 30 -3 68 -59 68 l-40 0
3 -67z m68 37 c13 -8 13 -11 -2 -27 -21 -20 -45 -5 -35 21 7 18 16 20 37 6z"/>
<path d="M3370 4100 l0 -70 45 0 c33 0 45 4 45 15 0 10 -10 15 -30 15 -20 0
-30 5 -30 15 0 9 9 15 25 15 14 0 25 5 25 10 0 6 -11 10 -25 10 -18 0 -25 5
-25 20 0 16 7 20 30 20 17 0 30 5 30 10 0 6 -20 10 -45 10 l-45 0 0 -70z"/>
<path d="M2290 3885 l0 -65 38 0 c64 0 93 56 56 108 -11 16 -25 22 -55 22
l-39 0 0 -65z m73 23 c15 -23 0 -68 -23 -68 -16 0 -20 7 -20 38 0 54 20 68 43
30z"/>
<path d="M2420 3885 l0 -65 45 0 c25 0 45 5 45 10 0 6 -13 10 -30 10 -20 0
-30 5 -30 15 0 9 9 15 25 15 16 0 25 6 25 15 0 9 -9 15 -25 15 -16 0 -25 6
-25 15 0 10 10 15 30 15 17 0 30 5 30 10 0 6 -20 10 -45 10 l-45 0 0 -65z"/>
<path d="M2522 3938 c3 -7 13 -37 22 -65 25 -75 48 -72 75 9 11 34 19 63 16
66 -12 12 -35 -11 -41 -43 -9 -50 -18 -50 -32 1 -8 29 -17 44 -28 44 -9 0 -14
-6 -12 -12z"/>
<path d="M2658 3885 l-3 -65 48 0 c26 0 47 5 47 10 0 6 -13 10 -30 10 -20 0
-30 5 -30 15 0 9 9 15 25 15 16 0 25 6 25 15 0 9 -9 15 -25 15 -16 0 -25 6
-25 15 0 10 10 15 30 15 17 0 30 5 30 10 0 6 -20 10 -44 10 l-44 0 -4 -65z"/>
<path d="M2760 3885 l0 -65 45 0 c25 0 45 5 45 10 0 6 -13 10 -30 10 -30 0
-30 1 -30 55 0 42 -3 55 -15 55 -12 0 -15 -14 -15 -65z"/>
<path d="M2876 3934 c-19 -19 -21 -74 -3 -96 36 -47 101 -18 101 45 0 19 -6
42 -13 51 -17 20 -65 21 -85 0z m63 -26 c11 -31 -2 -63 -25 -63 -20 0 -31 41
-20 71 8 22 36 17 45 -8z"/>
<path d="M2998 3885 c-3 -57 -1 -65 15 -65 10 0 17 8 17 19 0 12 11 21 33 27
22 7 33 17 35 32 5 34 -16 52 -58 52 l-38 0 -4 -65z m70 22 c2 -12 -3 -17 -17
-17 -15 0 -21 6 -21 21 0 25 33 22 38 -4z"/>
<path d="M3120 3885 c0 -50 3 -65 14 -65 10 0 16 14 18 43 l3 42 14 -42 c8
-24 19 -43 26 -43 7 0 18 19 26 43 l14 42 3 -42 c2 -29 8 -43 18 -43 11 0 14
15 14 65 0 61 -1 65 -23 65 -19 0 -25 -8 -36 -47 -14 -51 -15 -50 -41 20 -6
17 -17 27 -30 27 -18 0 -20 -6 -20 -65z"/>
<path d="M3290 3885 l0 -65 45 0 c25 0 45 5 45 10 0 6 -13 10 -30 10 -20 0
-30 5 -30 15 0 9 9 15 25 15 16 0 25 6 25 15 0 9 -9 15 -25 15 -16 0 -25 6
-25 15 0 10 10 15 30 15 17 0 30 5 30 10 0 6 -20 10 -45 10 l-45 0 0 -65z"/>
<path d="M3400 3886 c0 -51 3 -66 14 -66 10 0 16 13 18 38 l3 37 22 -37 c35
-60 53 -51 53 27 0 51 -3 65 -15 65 -11 0 -15 -11 -15 -42 l0 -43 -23 40 c-12
22 -30 41 -40 43 -15 3 -17 -5 -17 -62z"/>
<path d="M3530 3941 c0 -5 9 -11 21 -14 19 -5 21 -12 18 -56 -3 -43 -1 -51 14
-51 14 0 17 9 17 55 0 48 2 55 20 55 11 0 20 5 20 10 0 6 -25 10 -55 10 -30 0
-55 -4 -55 -9z"/>
<path d="M2912 3724 c-17 -11 -22 -25 -22 -58 0 -23 5 -47 12 -54 17 -17 73
-15 88 3 18 22 4 31 -24 16 -32 -18 -46 -7 -46 34 0 41 14 52 46 34 33 -17 44
-2 15 22 -28 23 -40 24 -69 3z"/>
<path d="M3155 3715 c-29 -28 -32 -61 -9 -93 17 -24 62 -30 82 -10 16 16 15
28 -3 28 -8 0 -15 -4 -15 -10 0 -5 -9 -10 -20 -10 -22 0 -36 36 -25 69 6 21
45 30 45 11 0 -5 7 -10 15 -10 25 0 17 30 -11 40 -33 13 -31 14 -59 -15z"/>
<path d="M2468 3665 l4 -65 39 0 c21 0 39 5 39 10 0 6 -11 10 -25 10 -24 0
-25 3 -25 55 0 46 -3 55 -17 55 -16 0 -18 -8 -15 -65z"/>
<path d="M2570 3665 c0 -51 3 -65 15 -65 12 0 15 14 15 65 0 51 -3 65 -15 65
-12 0 -15 -14 -15 -65z"/>
<path d="M2630 3665 c0 -51 3 -65 15 -65 9 0 15 9 15 25 0 20 5 25 25 25 16 0
25 6 25 15 0 9 -9 15 -25 15 -16 0 -25 6 -25 15 0 10 10 15 30 15 17 0 30 5
30 10 0 6 -20 10 -45 10 l-45 0 0 -65z"/>
<path d="M2730 3665 l0 -65 50 0 c55 0 69 17 18 22 -41 4 -45 32 -5 36 37 4
35 22 -3 22 -20 0 -30 5 -30 15 0 10 11 15 35 15 19 0 35 5 35 10 0 6 -22 10
-50 10 l-50 0 0 -65z"/>
<path d="M3030 3690 c11 -21 20 -51 20 -65 0 -16 6 -25 15 -25 8 0 15 9 15 20
0 12 9 38 20 60 24 46 24 50 7 50 -8 0 -19 -12 -26 -27 l-13 -28 -14 28 c-8
15 -21 27 -30 27 -12 0 -11 -7 6 -40z"/>
<path d="M3260 3665 l0 -65 45 0 c25 0 45 5 45 10 0 6 -13 10 -30 10 -30 0
-30 1 -30 55 0 42 -3 55 -15 55 -12 0 -15 -14 -15 -65z"/>
<path d="M3370 3665 l0 -65 45 0 c25 0 45 5 45 10 0 6 -13 10 -30 10 -23 0
-30 4 -30 20 0 15 7 20 25 20 14 0 25 5 25 10 0 6 -11 10 -25 10 -16 0 -25 6
-25 15 0 10 10 15 30 15 17 0 30 5 30 10 0 6 -20 10 -45 10 l-45 0 0 -65z"/>
<path d="M3827 3593 c-4 -3 -7 -13 -7 -21 0 -26 -79 -183 -125 -247 -125 -175
-325 -314 -521 -361 l-70 -17 -98 -236 c-55 -130 -113 -270 -131 -312 l-33
-76 195 -249 c107 -137 202 -257 211 -266 16 -16 23 -16 117 3 241 50 526 169
728 303 323 215 557 483 729 831 79 161 182 461 152 442 -27 -16 -619 -227
-628 -224 -8 4 -331 279 -497 423 -9 8 -19 11 -22 7z m559 -936 l14 -32 -6 38
c-6 33 -4 37 14 37 12 0 28 -10 36 -22 l16 -22 0 22 c0 15 6 22 20 22 18 0 20
-7 20 -60 0 -51 -3 -60 -18 -60 -11 0 -25 14 -35 33 l-16 32 0 -32 c-1 -38
-29 -47 -38 -13 l-6 21 -14 -21 c-17 -24 -55 -26 -78 -4 -25 25 -16 85 14 101
32 15 58 2 77 -40z m-1236 -17 c0 -53 -2 -60 -20 -60 -18 0 -20 7 -20 60 0 53
2 60 20 60 18 0 20 -7 20 -60z m66 28 l7 -33 14 33 c8 21 20 32 33 32 18 0 20
-7 20 -60 0 -47 -3 -60 -15 -60 -10 0 -15 10 -16 28 l-1 27 -10 -27 c-5 -16
-15 -28 -22 -28 -7 0 -17 12 -23 28 l-12 27 6 -27 c4 -24 2 -28 -16 -28 -19 0
-21 6 -21 60 0 57 1 60 24 60 19 0 26 -7 32 -32z m178 10 c14 -23 -3 -52 -33
-56 -13 -2 -21 -11 -21 -23 0 -12 -7 -19 -20 -19 -18 0 -20 7 -20 61 l0 60 41
-3 c27 -2 46 -9 53 -20z m46 -23 c0 -41 2 -45 25 -45 16 0 25 -6 25 -15 0 -11
-11 -15 -40 -15 l-40 0 0 60 c0 47 3 60 15 60 11 0 15 -12 15 -45z m205 8 l8
-38 12 35 c8 23 19 36 33 38 21 3 22 -1 22 -57 0 -48 -3 -61 -15 -61 -10 0
-15 10 -16 28 l-1 27 -10 -27 c-5 -16 -16 -28 -23 -28 -7 0 -18 12 -23 28
l-10 27 -1 -26 c-1 -25 -3 -26 -61 -28 l-60 -1 0 60 0 60 69 0 69 0 7 -37z
m229 10 l15 -28 1 28 c0 27 0 27 70 27 58 0 70 -3 70 -16 0 -10 -6 -14 -15
-10 -12 4 -15 -4 -15 -44 0 -43 -3 -50 -20 -50 -17 0 -20 7 -20 48 0 37 -4 49
-15 49 -11 0 -15 -12 -15 -49 0 -41 -3 -48 -20 -48 -11 0 -26 12 -34 28 l-15
27 -1 -27 c0 -28 -1 -28 -65 -28 l-65 0 0 60 0 60 65 0 c60 0 65 -2 79 -27z
m242 -25 c10 -29 21 -56 22 -60 2 -4 -6 -8 -17 -8 -12 0 -21 5 -21 10 0 6 -9
10 -20 10 -11 0 -20 -4 -20 -10 0 -5 -9 -10 -20 -10 -11 0 -20 2 -20 4 0 3 20
62 35 104 2 6 13 12 23 12 13 0 24 -15 38 -52z m114 41 c0 -6 -9 -13 -20 -16
-16 -4 -20 -14 -20 -49 0 -32 -4 -44 -15 -44 -11 0 -15 12 -15 44 0 35 -4 45
-20 49 -41 11 -20 27 35 27 33 0 55 -4 55 -11z m40 -50 c0 -52 -2 -60 -17 -57
-32 6 -29 118 2 118 12 0 15 -14 15 -61z"/>
<path d="M4320 2665 c-14 -17 -4 -55 16 -55 9 0 14 11 14 29 0 35 -13 47 -30
26z"/>
<path d="M3340 2666 c0 -9 5 -16 10 -16 6 0 10 4 10 9 0 6 -4 13 -10 16 -5 3
-10 -1 -10 -9z"/>
<path d="M3555 2670 l-30 -8 28 -1 c35 -1 38 -31 2 -31 -35 0 -31 -17 5 -22
29 -4 30 -3 30 34 0 21 -1 37 -2 37 -2 -1 -16 -5 -33 -9z"/>
<path d="M3790 2670 c-24 -8 -24 -8 -2 -9 28 -1 30 -31 2 -31 -11 0 -20 -4
-20 -10 0 -5 11 -10 25 -10 22 0 25 4 25 35 0 19 -1 35 -2 34 -2 -1 -14 -5
-28 -9z"/>
<path d="M1419 3434 c-18 -27 -104 -154 -191 -283 l-157 -233 31 -57 c99 -178
196 -309 343 -460 356 -367 821 -586 1339 -632 116 -10 336 -4 336 10 0 3 -68
92 -151 196 -83 105 -175 222 -205 261 l-54 71 124 295 c68 163 127 305 131
317 6 20 3 21 -70 21 -136 0 -292 48 -439 134 -87 51 -228 189 -288 281 l-45
70 -294 23 c-162 13 -313 26 -335 29 -40 5 -42 4 -75 -43z m491 -744 c0 -5
-11 -10 -24 -10 -14 0 -28 -4 -31 -10 -4 -6 5 -10 19 -10 16 0 26 -6 26 -15 0
-8 -9 -15 -19 -15 -31 0 -34 -18 -4 -22 48 -6 39 -28 -11 -28 l-46 0 0 50 c0
43 -3 50 -20 50 -17 0 -20 -7 -20 -50 0 -38 -4 -50 -15 -50 -11 0 -15 12 -15
50 0 43 -3 50 -20 50 -11 0 -20 5 -20 10 0 6 40 10 100 10 60 0 100 -4 100
-10z m90 -5 c18 -21 3 -32 -21 -16 -12 7 -24 9 -27 5 -4 -4 -1 -9 5 -11 7 -3
23 -13 35 -23 19 -15 21 -22 12 -37 -14 -22 -46 -28 -73 -13 -32 17 -26 33 9
27 35 -8 41 8 6 17 -28 7 -41 33 -25 52 15 19 63 18 79 -1z m110 5 c0 -5 -7
-10 -15 -10 -11 0 -15 -12 -15 -51 0 -43 -3 -50 -17 -47 -14 2 -19 15 -21 51
-2 33 -7 47 -18 47 -7 0 -14 5 -14 10 0 6 23 10 50 10 28 0 50 -4 50 -10z m40
-50 c0 -47 -3 -60 -15 -60 -12 0 -15 13 -15 60 0 47 3 60 15 60 12 0 15 -13
15 -60z m70 28 l20 -33 0 33 c0 22 5 32 15 32 12 0 15 -13 15 -60 0 -70 -18
-80 -50 -27 l-20 32 0 -32 c0 -23 -5 -33 -15 -33 -12 0 -15 13 -15 60 0 70 18
80 50 28z m150 17 c18 -21 3 -32 -22 -16 -17 11 -22 11 -29 -1 -15 -21 -6 -53
16 -56 16 -3 18 -1 8 9 -20 20 -16 29 12 29 21 0 25 -5 25 -29 0 -17 -6 -31
-16 -35 -60 -23 -105 35 -74 95 13 23 62 26 80 4z"/>
<path d="M4316 1504 c-23 -22 -13 -59 25 -95 16 -15 29 -24 30 -21 0 4 4 -3
10 -16 7 -18 14 -22 31 -16 30 9 29 7 35 52 8 63 -13 88 -91 108 -15 3 -29 -1
-40 -12z"/>
<path d="M4413 1339 c-31 -9 -41 -30 -34 -72 1 -5 -3 -6 -9 -2 -5 3 -15 -5
-21 -19 -7 -15 -28 -30 -58 -41 -88 -31 -99 -48 -33 -53 30 -2 40 -7 35 -15
-4 -7 1 -6 10 2 10 8 15 16 13 19 -7 6 60 42 78 42 8 0 17 -6 19 -12 4 -10 8
-10 15 1 7 9 20 12 41 8 20 -4 30 -3 26 3 -3 6 6 20 21 33 26 23 26 24 10 54
-32 62 -49 70 -113 52z"/>
<path d="M4060 1225 c-14 -8 -19 -14 -10 -14 8 0 24 6 34 14 25 19 9 19 -24 0z"/>
<path d="M4259 1093 l-24 -28 28 24 c15 14 27 26 27 28 0 8 -8 1 -31 -24z"/>
<path d="M3908 1073 c7 -3 16 -2 19 1 4 3 -2 6 -13 5 -11 0 -14 -3 -6 -6z"/>
<path d="M4010 1025 c-17 -10 -20 -14 -9 -15 9 0 22 7 29 15 15 18 12 18 -20
0z"/>
<path d="M4105 1000 c-3 -6 1 -7 9 -4 18 7 21 14 7 14 -6 0 -13 -4 -16 -10z"/>
<path d="M4294 732 c-27 -81 -29 -99 -29 -242 0 -85 3 -176 7 -202 l7 -47 -34
6 c-23 4 -35 2 -35 -6 0 -16 78 -63 98 -59 18 3 19 13 41 236 7 81 16 117 42
174 l33 71 22 -144 c38 -259 37 -239 9 -239 -35 0 -31 -14 11 -39 69 -41 70
-39 79 244 3 94 8 203 11 244 l6 74 -27 -21 c-37 -29 -86 -28 -122 1 -15 13
-42 27 -59 30 l-32 6 -28 -87z"/>
<path d="M3207 283 c-3 -5 5 -8 18 -8 13 0 21 3 18 8 -2 4 -10 7 -18 7 -8 0
-16 -3 -18 -7z"/>
<path d="M3165 260 c-3 -6 1 -7 9 -4 18 7 21 14 7 14 -6 0 -13 -4 -16 -10z"/>
<path d="M3287 249 c7 -7 15 -10 18 -7 3 3 -2 9 -12 12 -14 6 -15 5 -6 -5z"/>
<path d="M3124 234 c-18 -14 -18 -15 4 -4 12 6 22 13 22 15 0 8 -5 6 -26 -11z"/>
<path d="M3068 204 c-38 -20 -36 -28 2 -9 17 9 30 18 30 20 0 7 -1 6 -32 -11z"/>
<path d="M3018 175 c-2 -3 -33 -11 -69 -19 -35 -8 -54 -14 -41 -15 31 -1 111
19 118 30 6 10 1 12 -8 4z"/>
<path d="M3457 149 c7 -7 15 -10 18 -7 3 3 -2 9 -12 12 -14 6 -15 5 -6 -5z"/>
<path d="M3678 53 c6 -2 18 -2 25 0 6 3 1 5 -13 5 -14 0 -19 -2 -12 -5z"/>
</g>
</svg>
